<svg xmlns="http://www.w3.org/2000/svg" width="1742.987" height="538.003" viewBox="0 0 1742.987 538.003">
  <path id="Color_Overlay" data-name="Color Overlay" d="M391.284,4448.352c-4.415-4.3-21.572-3.837-25.121-7.074-2.423-5.1-4.154-7.208-4.067-8.162-8.893-7.606-19.6-4.657-24.385-15.788-6.06-7.363.367-27.3-1.516-39.163-2.423-5.078-8.546-23.173-8.914-30.047l.714-42.844-4.111-30.6c-1.558-15.745-2.553-26.566-3.894-33.506-1.926-10.911.973-45.771-6.1-52.248l-4.067,25.99c-3.852.644-6.773,1.353-9.867,4.014-4.176,4.5-3.008,13.394-6.253,17.983-1.017.889-9.218,7.962-10.407,10.8-4.35,6.453-10.6,24.438-15.9,30.8l-2.034,1.775-3.008,1.685c-1.255,3.792-3.009,13.394-6.167,17.009-10.582,12.729-16.9,20-18.089,22.818-1.255,3.793-8.222,18.783-12.4,23.307-6.4,8.228-13.826,17.319-30.834,15.833-3.375-5.167-17.159-11.265-20.6-15.456-2.6-3.149-3.137-8.072-3.831-11.066L157.382,4319.6c-13.351-22.619-22.135-42.888-25.49-59.785-6.795-32.776-6.339-61.005.325-83.869l2.163-26.145c8.417-32.421,12.009-69.566,11.706-77.393-.541-4.923-3.765-12.042-4.392-15.988,1.433.123,2.772-1.508,3.866-3.136,1.07-1.593,1.9-3.184,2.365-3.14,10.407.909,16.617,6.321,16.748,16.1-8.439,9.979-7.942,55.284-11.663,65.685-3.483,7.517-6.447,31.622-8.288,42.2-7.292,30.579-4.154,84.511,8.7,112.94,2.511,4.124,10.3,13.571,12.874,16.742,9.283,14.459,17.2,22,25.641,23.708,14.994-20.158,24.947-36.834,28.994-51.116,3.57-8.471,5.258-28.828,6.751-35.5l2.6-31c.324-3.882,1.147-25.258,2.422-29.05.065-.976.953-11.621,3.593-31.888,2.639-20.247,5.734-34.616,9.152-41.136l9.325-20.645,1.775-21.312c3.873-12.33,7.357-19.847,8.634-23.617,4.8-.576,8.741-2.172,9.846-4.036,4.11-3.548,6.729-12.085,7.94-26.611,36.632-5.587,58.681-7.562,65.043-4.08l4.24,6.232a39.829,39.829,0,0,1,10.234,2.838l-.238,2.906c-2.055,1.774-3.635,9.447-3.829,23.084-.173,13.638.044,22.441-1.3,27.21-3.808,11.353-3.981,25.014-2.445,40.759-.238,2.883-1.99,12.507-2.25,15.413.39,6.852-1.233,37.92.714,48.83.542,4.924-4.7,22.02-2.422,29.05,7.443,59.187,9.11,96.4,5.064,110.678,5.862,21,8.525,34.882,9.065,39.806l3.787.332.151-1.93c2.122-2.726,4.826-12.261,7.314-30.579,3.4-18.229,4.371-29.871,3.831-34.771.238-2.9-1.386-17.7-1.148-20.6,2.1-25.169,5.3-52.2,10.646-81.983s8.676-47.057,10.97-51.714c6.967-15.012,10.689-25.413,12.03-30.18l.324-3.858c15.364-1.6,42.064-13.882,43.017-13.794l8.351,2.682c8.353,2.661,12.81,5.988,13.523,8.981s.389,6.853,1.255,7.917c9.348,13.505,38.86,24.859,87.438,35.924l26.2,5.212c13.156,2.128,21.659,2.882,24.408,4.1,12.2,2.041,26.786-1.575,54.462-13.771l20.793-9.913c1.515-.244,4.284-1.707,7.249-3.458,9.391-7.519,23.347-16.766,41.848-26.367a19.678,19.678,0,0,1,4.443-.182c3.243.073,7.057.144,9.037-1.57,17.959,1.552,29.06,5.455,32.434,10.644,6.665,11.309,12.14,37.144,15.364,78.392,4.175,41.335,9.391,70.1,15.579,87.216-1.017.887-.152,1.929.778,2.018,4.651,1.375,10.493-.067,16.4-2.462,2.9-.731,24.429-7.628,25.445-8.515l31.85-16.721L948,4209.254l41.047-31.955c3.635-5.078,8.958-10,16.12-14.77,3.073-2.638,20.446-16.742,27.458-21,12.139-8.693,32.63-14.7,52.451-1.265,19.906,12.462,34.252,45.9,43.209,98.393q6.329,26.911,5.366,38.52l4.717.422c1.276-3.794,7.269-18.873,19-45.172,22.373-51.691,43.578-88.858,61.645-111.677,13.806-17.319,25.4-30.936,34.642-38.918,4.111-3.548,12.917-6.675,17.115-11.177l5.366-7.34,3.787.333c15.535-15.235,32.867-17.63,50.091-7.341.563,4.946,4.305,16.965,10.17,37.965q10.353,30.17,10.559,44.817c-.115,1.366-.812,1.232-1.467,1.1-1.207-.249-2.277-.5.666,8.594,2.186,8.006-2.184,26.146-1.644,31.068l2.6,3.172c-.563,6.763,2.64,13.88,2.077,20.667l.952.067c.867,1.064.867,1.064,1.795,1.13-.214,2.927-1.664,8.648-1.75,9.6,2.6,14.858,11.683,31.291,28.279,49.318,25.469,25.636,45.439,37.124,58.142,33.354,1.969-.8,8.979-5.056,20.1-12.862,17.028-10.223,46.628-33.973,63.635-44.2l11.36-7.629q-1.461-3.927-2.985-7.12c-3.636-36.412,12.051-87.7,37.237-115.734,11.208-8.782,20.6-18.694,27.155-28.85,4.11-3.548,8.4-20.735,13.673-27.1,24.3-29.094,39.468-39.472,66.148-28.362,2.423,5.078,21.68,25.3,23.54,37.188,2.9,10.977,1.365,29.383-3.655,55.262-4.912,24.948-14.086,43.664-26.461,55.24-12.334,10.644-28.411,20.933-38.364,37.632,3.268,17.852.281,53.688,13.242,69.454,18.176,22.066,66.579,35.081,94.3,33.6,3.607.857,10.3-.4,16.041-1.649,4.659-1.015,8.7-2.03,9.968-1.921,27.479,1.419,44.66.976,51.346.576,3.071-2.661,7.01-4.257,11.987-6.763.953.088,6.514,1.552,7.4,2.617a40.828,40.828,0,0,0,4.411-1.061c2.946-.739,6.538-1.481,8.117-.781,14.325-.687,21.812.933,21.4,5.789-14.672,16.255-18.89,32.488-24.537,31.978-8.764,2.173-20.449,16.742-28.409,20.933-.953-.066-4.8.555-9.759,3.061l-8.851,3.126c-1.016.888-.476,5.811-1.666,8.627-11.6,13.616-26.419,20.136-44.378,18.56a3.547,3.547,0,0,1-1.169,2.816l-1.1,1.864c-2.732-2.663-7.241-1.36-11.18-.061-2.43.8-4.644,1.606-6.088,1.479-2.833-.266-11.251-1.951-24.319-5.056-12.118-3.017-19.776-2.7-20.947.111-.865-1.042-15.881-15.036-16.833-15.124l-5.042,3.46c-.953-.089-6.384-3.482-17.31-9.314l-17.309-9.314c-18.63-16.276-33.819-28.317-43.492-37.942-18.154-19.979-41.8-51.914-47.971-83.38-11.338,9.181-31.765,25.613-34.23,36.057-8.59.222-24.992,14.393-26.009,15.279-42.733,21.644-69.457,33.93-80.253,37.855l-.324,3.88c-2.836-.244-11.513.954-24.04,2.773q-18.791,2.759-25.748.687c-8.266-3.659-15.342-10.134-19.128-10.467-2.662-2.174-7.552-.644-8.873-7.584.954.066,1.017-.909,2.208-3.726l-4.716-.421c-.715-2.972-7.01-7.429-7.617-11.4q-14.8-45.174-13.329-80.167l-.692-2.993c-1.666-3.06-2.661-13.882-2.077-32.377-2.25-18.715-2.121-43.087-5.474-59.984-2.4-16.787.909-22.354-13.957-26.566-17.915,9.159-26.115,16.255-38.9,32.688l-10.645,13.681c-4.176,4.524-21.4,28.386-25.835,35.815-4.35,6.432-8.7,24.593-12.117,31.134l-11.792,27.232c-5.778,12.2-9.412,21.621-12.7,27.188-6.274,17.984-25.661,67.99-40.787,66.682-14.929-14.969-18.283-31.845-11.943-50.8.086-.953,9.78-14.748,7.594-22.751-2.1-8.959-3.894-21.8-6.319-38.585-3.764-34.484-8.07-51.449-18.218-66.971-5.885-9.27-13.025-14.791-22.308-17.541-11.9-3.549-27.956,1.152-49.269,13.792l-5.583,4.813L980.95,4190.67c-5.214,5.39-16.573,16.1-36.069,32.931-3.224,4.59-4.326,6.453-4.414,7.429a74.3,74.3,0,0,0-15.125,10.377c-24.624,21.267-38.991,33.663-43.967,36.146-18.2,13.04-20.491,17.719-21.444,17.653L839.2,4304.1a52.494,52.494,0,0,0-14.822,6.52c-2.9.71-21.81-.931-25.337-4.169-7.336-3.57-16.51-19-22.893-22.486.411-4.834-2.315-17.763-1.753-24.548l-.864-1.042c.627-7.739-3.182-30.514.93-79.92,1.773-21.29,2.834-33.885,2.272-38.808-.367-6.875-4.219-17.94-4.587-24.793-6.059-7.362-13.287-11.886-19.906-12.462-4.112,3.525-15.84,7.384-18.761,8.093-11.771,7.251-21.334,12.574-28.713,15.5a1.767,1.767,0,0,0-.194.533c-2.532,7.561-30.292,20.755-39.51,28.717-25.77,12.374-52.731,15.877-81.617,8.47L561.16,4156.9c-4.717-.421-17.7-4.478-22.416-4.9-22.352-5.854-34.49-8.871-35.443-8.937l-.238,2.883c8.028,6.563,8.244,15.367.585,27.386l4.478,3.3-1.385,16.476c-.3,3.859-.087,12.664-.411,16.543-.087.954-5.28,6.364-6.47,9.181a46.937,46.937,0,0,0-.671,19.448c.778,2.018-2.315,16.388-8.439,44.152L478.937,4333.1q-16.065,55.649-35.139,78.856l-10,5.966c-3.181,3.614-16.7,28.761-23.628,32.065Zm1260.021-403.8c-7.01,4.258-14.842,18.206-22.525,41.935-2.641,8.537-7.054,27.653-10.084,41.047-3.656,21.133-3.483,41.646,8.158,50.472.952.089,2.056-1.773,4.976-2.484,13.09-8.626,25.9-25.058,37.432-49.407,12.573-25.258,17.008-44.374,14.455-59.231-.541-4.924-7.465-13.328-8.092-17.275l-11.728-7.874C1660.825,4044.4,1654.226,4043.823,1651.3,4044.555Zm-889-85.952c-2.186-8.005-3.267-17.852-4.263-28.673-3.548-3.238-7.1-6.475-11.662-8.826-1.472-5.012,7.248-7.163,7.422-9.114,4.737.421,13.155,2.128,26.224,5.232,13.069,3.083,23.39,4.969,29.989,5.545,2.272,7.03,5.366,4.368,4.544,14.059q6.362,9.346-11.4,34.128c-10.818,15.634-20.124,24.571-27.783,24.881C773.273,3986.876,764.488,3966.585,762.3,3958.6Z" transform="translate(-127.003 -3911.99)" fill="#d9d9d9"/>
</svg>
