<svg xmlns="http://www.w3.org/2000/svg" width="167.764" height="71.004" viewBox="0 0 167.764 71.004">
  <g id="logo" transform="translate(-123.356 -193.949)">
    <g id="Group_26" data-name="Group 26">
      <g id="Group_23" data-name="Group 23">
        <g id="Group_22" data-name="Group 22">
          <path id="Path_29" data-name="Path 29" d="M154.276,259.239a2.272,2.272,0,0,1,.507,1.473,2.33,2.33,0,0,1-.784,1.856,3.37,3.37,0,0,1-2.274.68h-3.995V253.92h3.916a3.34,3.34,0,0,1,2.168.622,2.129,2.129,0,0,1,.758,1.743,2.178,2.178,0,0,1-.454,1.427,2.112,2.112,0,0,1-1.193.726A2.262,2.262,0,0,1,154.276,259.239Zm-4.687-1.408h1.675a1.591,1.591,0,0,0,1.06-.311,1.108,1.108,0,0,0,.363-.892,1.141,1.141,0,0,0-.356-.9,1.609,1.609,0,0,0-1.095-.318H149.59Zm2.9,3.574a1.148,1.148,0,0,0,.395-.945,1.181,1.181,0,0,0-.4-.957,1.73,1.73,0,0,0-1.141-.337H149.59v2.563h1.766A1.745,1.745,0,0,0,152.49,261.4Z" fill="#c47d59"/>
          <path id="Path_30" data-name="Path 30" d="M170.727,254.395a4.4,4.4,0,0,1,1.675,1.7,5.269,5.269,0,0,1,0,4.935,4.381,4.381,0,0,1-1.675,1.7,4.91,4.91,0,0,1-4.733,0,4.393,4.393,0,0,1-1.674-1.7,5.274,5.274,0,0,1,0-4.935,4.414,4.414,0,0,1,1.674-1.7,4.915,4.915,0,0,1,4.733,0Zm-3.8,1.481a2.526,2.526,0,0,0-.969,1.063,3.923,3.923,0,0,0,0,3.237,2.525,2.525,0,0,0,.969,1.064,2.975,2.975,0,0,0,2.874,0,2.522,2.522,0,0,0,.969-1.064,3.923,3.923,0,0,0,0-3.237,2.523,2.523,0,0,0-.969-1.063,2.975,2.975,0,0,0-2.874,0Z" fill="#c47d59"/>
          <path id="Path_31" data-name="Path 31" d="M184.115,253.92v5.471a2.43,2.43,0,0,0,.481,1.645,2.022,2.022,0,0,0,2.769,0,2.434,2.434,0,0,0,.481-1.645V253.92h1.845v5.471a4.552,4.552,0,0,1-.481,2.186,3.108,3.108,0,0,1-1.331,1.329,4.185,4.185,0,0,1-1.931.435,3.612,3.612,0,0,1-2.676-1,4,4,0,0,1-1-2.946V253.92Z" fill="#c47d59"/>
          <path id="Path_32" data-name="Path 32" d="M205.564,253.92v1.48h-2.571v7.848h-1.858V255.4h-2.557v-1.48Z" fill="#c47d59"/>
          <path id="Path_33" data-name="Path 33" d="M216.36,253.92v9.328H214.5V253.92Z" fill="#c47d59"/>
          <path id="Path_34" data-name="Path 34" d="M232.931,264.953l-1.45-1.744a4.79,4.79,0,0,1-1.161.132,4.675,4.675,0,0,1-2.367-.608,4.393,4.393,0,0,1-1.674-1.7,5.274,5.274,0,0,1,0-4.935,4.414,4.414,0,0,1,1.674-1.7,4.915,4.915,0,0,1,4.733,0,4.4,4.4,0,0,1,1.675,1.7,4.945,4.945,0,0,1,.613,2.464,5.052,5.052,0,0,1-.528,2.319,4.384,4.384,0,0,1-1.463,1.671l2.2,2.4Zm-5.016-4.777a2.525,2.525,0,0,0,.969,1.064,2.975,2.975,0,0,0,2.874,0,2.522,2.522,0,0,0,.969-1.064,3.923,3.923,0,0,0,0-3.237,2.523,2.523,0,0,0-.969-1.063,2.975,2.975,0,0,0-2.874,0,2.526,2.526,0,0,0-.969,1.063,3.916,3.916,0,0,0,0,3.237Z" fill="#c47d59"/>
          <path id="Path_35" data-name="Path 35" d="M246.074,253.92v5.471a2.43,2.43,0,0,0,.481,1.645,2.022,2.022,0,0,0,2.769,0,2.434,2.434,0,0,0,.481-1.645V253.92h1.844v5.471a4.544,4.544,0,0,1-.481,2.186,3.1,3.1,0,0,1-1.331,1.329,4.181,4.181,0,0,1-1.931.435,3.612,3.612,0,0,1-2.676-1,3.994,3.994,0,0,1-1-2.946V253.92Z" fill="#c47d59"/>
          <path id="Path_36" data-name="Path 36" d="M263.054,255.4v2.418h3.3v1.427h-3.3v2.51h3.691v1.493h-5.55V253.92h5.55v1.48Z" fill="#c47d59"/>
        </g>
      </g>
      <g id="Group_25" data-name="Group 25">
        <g id="Group_24" data-name="Group 24">
          <path id="Path_37" data-name="Path 37" d="M184.092,195.636a16.133,16.133,0,0,0,.411,2.7c.211.752,1.056,2.661,1.259,3.5.736-.029,1.632-.87,2.674-2.342q1.71-2.334,1.1-3.212c.077-.912-.219-.662-.438-1.324a22.958,22.958,0,0,1-2.887-.521,21.928,21.928,0,0,0-2.523-.492c-.016.183-.857.386-.714.857A5.189,5.189,0,0,1,184.092,195.636Z" fill="#1d3258"/>
          <path id="Path_38" data-name="Path 38" d="M289.058,230.914c-.265-.114-1.116.181-1.206.173a2.121,2.121,0,0,0-.712-.245,5.616,5.616,0,0,0-1.153.636c-.645.037-2.3.08-4.943-.055a12.526,12.526,0,0,1-2.5.337c-2.667.139-7.327-1.086-9.075-3.164-1.248-1.484-.961-4.856-1.276-6.537a15.429,15.429,0,0,1,3.692-3.541,9.461,9.461,0,0,0,2.548-5.2,13.185,13.185,0,0,0,.352-5.2c-.18-1.117-2.033-3.021-2.267-3.5-2.569-1.047-4.027-.069-6.366,2.669-.509.6-.922,2.217-1.317,2.551a11.544,11.544,0,0,1-2.613,2.715,15.758,15.758,0,0,0-3.584,10.9q.146.3.288.669l-1.095.719c-1.638.961-4.486,3.2-6.124,4.159a16.487,16.487,0,0,1-1.936,1.211c-1.221.355-3.144-.728-5.6-3.141a9.572,9.572,0,0,1-2.72-4.64c.008-.091.146-.63.169-.9-.091-.008-.091-.008-.173-.106l-.091-.008c.054-.639-.255-1.308-.2-1.946l-.25-.3a16.369,16.369,0,0,0,.158-2.924c-.437-1.323.046-.548.077-.913a15.039,15.039,0,0,0-1.015-4.218c-.565-1.977-.926-3.11-.978-3.574a3.742,3.742,0,0,0-4.822.69l-.365-.031-.516.691a17.8,17.8,0,0,1-1.647,1.052,30.06,30.06,0,0,0-3.334,3.663,48.709,48.709,0,0,0-5.934,10.512c-1.127,2.475-1.706,3.894-1.827,4.251l-.455-.04a13.1,13.1,0,0,0-.516-3.625c-.861-4.941-2.243-8.089-4.159-9.263a4.408,4.408,0,0,0-5.049.119c-.675.4-2.346,1.729-2.643,1.978a5.818,5.818,0,0,0-1.55,1.391l-3.953,3.006-5.328,3.4-3.066,1.574c-.1.084-2.169.732-2.448.8a2.59,2.59,0,0,1-1.578.232c-.091-.008-.174-.107-.075-.191a37.241,37.241,0,0,1-1.5-8.209c-.311-3.884-.837-6.316-1.479-7.38-.326-.487-1.394-.854-3.122-1-.3.251-1.016.1-1.3.165a24.983,24.983,0,0,0-4.028,2.483,2.874,2.874,0,0,1-.7.327l-2,.931c-2.663,1.149-4.066,1.489-5.241,1.3a22.191,22.191,0,0,0-2.35-.385l-2.523-.491c-4.675-1.042-7.516-2.112-8.415-3.383-.084-.1-.053-.463-.12-.745s-.5-.593-1.3-.845l-.8-.253a22.427,22.427,0,0,1-4.141,1.3l-.031.364a21.212,21.212,0,0,1-1.157,2.84,33.594,33.594,0,0,0-1.056,4.868c-.513,2.8-.822,5.348-1.024,7.718-.023.274.133,1.665.109,1.939a13.905,13.905,0,0,1-.369,3.274,8.166,8.166,0,0,1-.7,2.878l-.016.183-.365-.031a28.446,28.446,0,0,0-.872-3.748c.39-1.344.23-4.847-.487-10.418-.219-.662.285-2.272.233-2.735-.187-1.027-.03-3.951-.068-4.6.024-.274.192-1.179.216-1.452a9.189,9.189,0,0,1,.235-3.835,13.4,13.4,0,0,0,.125-2.56c.018-1.284.171-2.006.369-2.173l.023-.273a3.848,3.848,0,0,0-.985-.268l-.408-.586c-.613-.329-2.736-.142-6.262.382a3.88,3.88,0,0,1-.763,2.505,1.4,1.4,0,0,1-.95.379c-.122.357-.456,1.062-.83,2.224l-.171,2.006-.9,1.944a13.966,13.966,0,0,0-.88,3.872c-.253,1.907-.339,2.909-.347,3-.122.357-.2,2.37-.233,2.735l-.249,2.918a23.7,23.7,0,0,1-.65,3.341,16.075,16.075,0,0,1-2.792,4.811c-.811-.161-1.574-.868-2.467-2.23-.249-.3-1-1.187-1.24-1.575a19.809,19.809,0,0,1-.836-10.631,25.651,25.651,0,0,1,.8-3.972c.358-.979.31-5.243,1.122-6.184-.013-.919-.611-1.429-1.611-1.515-.091-.008-.329.614-.6.591.059.372.37,1.041.422,1.505a35.838,35.838,0,0,1-1.126,7.285l-.21,2.461a16.126,16.126,0,0,0-.031,7.894,18.747,18.747,0,0,0,2.453,5.628l1.255,1.394a2.459,2.459,0,0,0,.37,1.041c.332.4,1.657.968,1.983,1.455a3.089,3.089,0,0,0,2.967-1.491,9.679,9.679,0,0,0,1.194-2.193,19.547,19.547,0,0,1,1.741-2.147,5.544,5.544,0,0,0,.595-1.6l.289-.158.2-.167c.51-.6,1.111-2.292,1.53-2.9a5.744,5.744,0,0,1,1-1.016c.313-.433.2-1.269.6-1.693a1.738,1.738,0,0,1,.949-.378l.391-2.447c.682.609.4,3.891.589,4.918.128.653.224,1.671.373,3.154l.4,2.88L142.633,235a12.266,12.266,0,0,0,.859,2.828c.18,1.117-.438,2.992.144,3.685.46,1.05,1.491.77,2.347,1.487a5.535,5.535,0,0,0,.392.768c.342.3,1.993.262,2.417.666l1.819.156c.667-.311,1.968-2.678,2.273-3.02l.964-.56q1.834-2.186,3.38-7.425l1.138-4.77a25.749,25.749,0,0,0,.812-4.154,4.313,4.313,0,0,1,.063-1.831c.115-.266.616-.774.623-.865.031-.364.01-1.193.04-1.558l.132-1.549-.431-.313c.738-1.13.716-1.958-.056-2.576l.022-.273c.091.008,1.26.291,3.412.842.454.039,1.7.421,2.158.46l2.145.642a11.386,11.386,0,0,0,7.855-.8c.888-.75,3.559-1.99,3.8-2.7a.221.221,0,0,1,.02-.049,19.918,19.918,0,0,0,2.763-1.459,6.356,6.356,0,0,0,1.8-.763,3.019,3.019,0,0,1,1.917,1.174c.036.646.406,1.687.442,2.334a30.566,30.566,0,0,1-.219,3.653,55.669,55.669,0,0,0-.09,7.522l.083.1c-.054.639.208,1.854.169,2.311.615.328,1.5,1.781,2.2,2.117a5.76,5.76,0,0,0,2.44.392,5.08,5.08,0,0,1,1.426-.613l1.995-.838a19.833,19.833,0,0,1,2.065-1.661,44.779,44.779,0,0,0,4.23-3.4,7.2,7.2,0,0,1,1.457-.976,2.293,2.293,0,0,1,.425-.7c1.876-1.584,2.97-2.593,3.471-3.1l3.424-2.554.538-.454c2.051-1.191,3.6-1.631,4.74-1.3a3.7,3.7,0,0,1,2.149,1.653c.975,1.461,1.389,3.057,1.753,6.3.233,1.581.4,2.789.606,3.633.212.753-.723,2.05-.73,2.142a4.266,4.266,0,0,0,1.15,4.781c1.456.125,3.322-4.583,3.925-6.276.318-.523.668-1.412,1.225-2.558l1.134-2.565c.328-.616.748-2.325,1.166-2.931a40.872,40.872,0,0,1,2.486-3.369l1.026-1.289a9.449,9.449,0,0,1,3.744-3.077c1.432.4,1.112.921,1.344,2.5.323,1.589.311,3.884.526,5.646a8.87,8.87,0,0,0,.2,3.047l.068.282a21.2,21.2,0,0,0,1.283,7.547c.059.373.665.792.732,1.073l.454.038c-.113.266-.121.357-.212.35.127.654.6.51.855.716a19.62,19.62,0,0,1,1.84.983,6.887,6.887,0,0,0,2.479-.064,18.282,18.282,0,0,1,2.314-.261l.031-.366c1.039-.369,3.612-1.526,7.724-3.563.1-.083,1.678-1.417,2.505-1.439.237-.983,2.2-2.53,3.293-3.394.595,2.962,2.87,5.97,4.618,7.849.931.906,2.392,2.041,4.185,3.571l1.667.878c1.052.549,1.575.869,1.665.877l.486-.326a21.173,21.173,0,0,1,1.62,1.424c.114-.266.849-.3,2.016-.011,1.257.292,2.069.452,2.341.476.364.031,1.237-.537,1.661-.134l.107-.174a.339.339,0,0,0,.113-.266,4.856,4.856,0,0,0,4.272-1.747c.114-.265.062-.729.16-.812l.85-.294a2.426,2.426,0,0,1,.941-.287c.767-.394,1.891-1.766,2.734-1.97.544.046.95-1.48,2.363-3.011C291.157,231,290.436,230.849,289.058,230.914Zm-21.341-11.926c-1.12-.83-1.138-2.76-.786-4.75.292-1.26.719-3.059.971-3.865.739-2.233,1.494-3.545,2.168-3.946.281-.068.918-.013,1.214-.264l1.129.739c.059.373.725,1.163.778,1.627.247,1.4-.182,3.2-1.39,5.575a11.237,11.237,0,0,1-3.6,4.65C267.915,218.821,267.808,219,267.717,218.988Z" fill="#1d3258"/>
        </g>
      </g>
    </g>
  </g>
</svg>
